# xmcd
#
# Track frame offsets:
#	150
#	28781
#	69774
#	91371
#	109172
#	142883
#	189656
#	239681
#	270979
#
# Disc length: 4037 seconds
#
# Revision: 0
# Processed by: cddbd v1.5.2PL0 Copyright (c) Steve Scherf et al.
# Submitted via: audiograbber 1.83.01
#
DISCID=760fc309
DTITLE=Colosseum II - Strange New Flesh [Expanded Edition 2005] [CD 1)
DYEAR=1976
DGENRE=Rock/Jazz
TTITLE0=Dark Side Of The Moog
TTITLE1=Down To You
TTITLE2=Gemini And Leo
TTITLE3=Secret Places
TTITLE4=On Second Thoughts
TTITLE5=Winds
TTITLE6=Castles [version one] [bonus track]
TTITLE7=Gary's Lament [bonus track]
TTITLE8=Walking In The Park [bonus track]
EXTD=
EXTT0=
EXTT1=
EXTT2=
EXTT3=
EXTT4=
EXTT5=
EXTT6=
EXTT7=
EXTT8=
PLAYORDER=
